<svg width="143" height="87" viewBox="0 0 143 87" fill="none" xmlns="http://www.w3.org/2000/svg">
<path d="M45.28 43.18C44.12 43.18 43.07 42.97 42.13 42.55C41.19 42.13 40.44 41.45 39.88 40.51C39.34 39.57 39.07 38.32 39.07 36.76V27.46C39.07 25.92 39.34 24.68 39.88 23.74C40.44 22.8 41.19 22.12 42.13 21.7C43.07 21.28 44.12 21.07 45.28 21.07C46.46 21.07 47.52 21.28 48.46 21.7C49.4 22.12 50.15 22.8 50.71 23.74C51.27 24.68 51.55 25.92 51.55 27.46V36.76C51.55 38.32 51.27 39.57 50.71 40.51C50.15 41.45 49.4 42.13 48.46 42.55C47.52 42.97 46.46 43.18 45.28 43.18ZM45.28 41.35C46.62 41.35 47.67 40.98 48.43 40.24C49.19 39.5 49.57 38.34 49.57 36.76V27.46C49.57 25.9 49.19 24.75 48.43 24.01C47.67 23.27 46.62 22.9 45.28 22.9C43.94 22.9 42.89 23.27 42.13 24.01C41.39 24.75 41.02 25.9 41.02 27.46V36.76C41.02 38.34 41.39 39.5 42.13 40.24C42.89 40.98 43.94 41.35 45.28 41.35ZM67.322 43.03C67.082 43.03 66.882 42.92 66.722 42.7C66.562 42.48 66.422 42.25 66.302 42.01L61.652 33.01H57.842V42.25C57.842 42.49 57.732 42.68 57.512 42.82C57.312 42.94 57.092 43 56.852 43C56.592 43 56.362 42.94 56.162 42.82C55.962 42.68 55.862 42.49 55.862 42.25V21.79C55.862 21.61 55.932 21.45 56.072 21.31C56.212 21.17 56.392 21.09 56.612 21.07H61.922C63.102 21.07 64.182 21.25 65.162 21.61C66.142 21.97 66.922 22.58 67.502 23.44C68.102 24.3 68.402 25.48 68.402 26.98C68.402 28.22 68.192 29.24 67.772 30.04C67.352 30.84 66.792 31.46 66.092 31.9C65.392 32.32 64.602 32.61 63.722 32.77L68.342 41.65C68.422 41.77 68.462 41.9 68.462 42.04C68.462 42.3 68.342 42.53 68.102 42.73C67.862 42.93 67.602 43.03 67.322 43.03ZM57.842 31.3H61.922C63.262 31.3 64.342 30.98 65.162 30.34C66.002 29.68 66.422 28.59 66.422 27.07C66.422 25.57 66.002 24.5 65.162 23.86C64.342 23.22 63.262 22.9 61.922 22.9H57.842V31.3ZM72.6116 43C72.3916 43 72.1816 42.94 71.9816 42.82C71.8016 42.68 71.7116 42.49 71.7116 42.25V21.82C71.7116 21.58 71.8016 21.4 71.9816 21.28C72.1816 21.14 72.3916 21.07 72.6116 21.07H83.2916C83.5516 21.07 83.7416 21.17 83.8616 21.37C83.9816 21.55 84.0416 21.74 84.0416 21.94C84.0416 22.2 83.9716 22.43 83.8316 22.63C83.7116 22.81 83.5316 22.9 83.2916 22.9H73.6916V31.15H78.4016C78.6416 31.15 78.8216 31.24 78.9416 31.42C79.0816 31.6 79.1516 31.81 79.1516 32.05C79.1516 32.25 79.0916 32.44 78.9716 32.62C78.8516 32.78 78.6616 32.86 78.4016 32.86H73.6916V41.17H83.2916C83.5316 41.17 83.7116 41.27 83.8316 41.47C83.9716 41.65 84.0416 41.87 84.0416 42.13C84.0416 42.33 83.9816 42.53 83.8616 42.73C83.7416 42.91 83.5516 43 83.2916 43H72.6116Z" fill="black"/>
<path d="M45.28 71.18C44.12 71.18 43.07 70.97 42.13 70.55C41.19 70.13 40.44 69.45 39.88 68.51C39.34 67.57 39.07 66.32 39.07 64.76V55.46C39.07 53.92 39.34 52.68 39.88 51.74C40.44 50.8 41.19 50.12 42.13 49.7C43.07 49.28 44.12 49.07 45.28 49.07C46.46 49.07 47.52 49.28 48.46 49.7C49.4 50.12 50.15 50.8 50.71 51.74C51.27 52.68 51.55 53.92 51.55 55.46V64.76C51.55 66.32 51.27 67.57 50.71 68.51C50.15 69.45 49.4 70.13 48.46 70.55C47.52 70.97 46.46 71.18 45.28 71.18ZM45.28 69.35C46.62 69.35 47.67 68.98 48.43 68.24C49.19 67.5 49.57 66.34 49.57 64.76V55.46C49.57 53.9 49.19 52.75 48.43 52.01C47.67 51.27 46.62 50.9 45.28 50.9C43.94 50.9 42.89 51.27 42.13 52.01C41.39 52.75 41.02 53.9 41.02 55.46V64.76C41.02 66.34 41.39 67.5 42.13 68.24C42.89 68.98 43.94 69.35 45.28 69.35ZM55.322 71C55.062 71 54.802 70.93 54.542 70.79C54.302 70.63 54.182 70.42 54.182 70.16C54.182 70.08 54.192 70.01 54.212 69.95L60.482 49.58C60.562 49.34 60.712 49.17 60.932 49.07C61.152 48.95 61.392 48.89 61.652 48.89C61.912 48.89 62.152 48.95 62.372 49.07C62.612 49.19 62.772 49.36 62.852 49.58L69.092 69.95C69.112 70.01 69.122 70.07 69.122 70.13C69.122 70.37 68.992 70.58 68.732 70.76C68.472 70.92 68.202 71 67.922 71C67.542 71 67.302 70.83 67.202 70.49L65.792 65.87H57.482L56.102 70.49C56.002 70.83 55.742 71 55.322 71ZM57.992 64.16H65.282L61.652 52.07L57.992 64.16ZM78.0046 71.18C76.8646 71.18 75.8246 70.97 74.8846 70.55C73.9446 70.13 73.1946 69.45 72.6346 68.51C72.0746 67.57 71.7946 66.32 71.7946 64.76V55.46C71.7946 53.92 72.0746 52.68 72.6346 51.74C73.2146 50.8 73.9746 50.12 74.9146 49.7C75.8746 49.28 76.9246 49.07 78.0646 49.07C79.3846 49.07 80.5046 49.3 81.4246 49.76C82.3446 50.22 83.0446 50.83 83.5246 51.59C84.0246 52.35 84.2746 53.18 84.2746 54.08C84.2746 54.58 84.1846 54.91 84.0046 55.07C83.8446 55.21 83.6046 55.28 83.2846 55.28C82.9246 55.28 82.6646 55.21 82.5046 55.07C82.3646 54.91 82.2946 54.73 82.2946 54.53C82.2746 54.21 82.2046 53.85 82.0846 53.45C81.9846 53.03 81.7846 52.63 81.4846 52.25C81.2046 51.85 80.7846 51.53 80.2246 51.29C79.6846 51.03 78.9746 50.9 78.0946 50.9C76.6946 50.9 75.6146 51.27 74.8546 52.01C74.1146 52.75 73.7446 53.9 73.7446 55.46V64.76C73.7446 66.34 74.1246 67.5 74.8846 68.24C75.6446 68.98 76.7446 69.35 78.1846 69.35C79.0646 69.35 79.7646 69.23 80.2846 68.99C80.8246 68.75 81.2246 68.44 81.4846 68.06C81.7646 67.68 81.9546 67.28 82.0546 66.86C82.1546 66.42 82.2346 66.02 82.2946 65.66C82.3346 65.16 82.6546 64.91 83.2546 64.91C83.5946 64.91 83.8446 64.99 84.0046 65.15C84.1846 65.31 84.2746 65.63 84.2746 66.11C84.2746 67.01 84.0246 67.85 83.5246 68.63C83.0246 69.39 82.3046 70.01 81.3646 70.49C80.4246 70.95 79.3046 71.18 78.0046 71.18ZM88.7563 71C88.4963 71 88.2663 70.94 88.0663 70.82C87.8663 70.68 87.7663 70.49 87.7663 70.25V49.79C87.7663 49.55 87.8663 49.37 88.0663 49.25C88.2663 49.13 88.4963 49.07 88.7563 49.07C88.9963 49.07 89.2163 49.13 89.4163 49.25C89.6363 49.37 89.7463 49.55 89.7463 49.79V58.76H98.4163V49.79C98.4163 49.55 98.5163 49.37 98.7163 49.25C98.9163 49.13 99.1463 49.07 99.4063 49.07C99.6463 49.07 99.8663 49.13 100.066 49.25C100.286 49.37 100.396 49.55 100.396 49.79V70.25C100.396 70.49 100.286 70.68 100.066 70.82C99.8663 70.94 99.6463 71 99.4063 71C99.1463 71 98.9163 70.94 98.7163 70.82C98.5163 70.68 98.4163 70.49 98.4163 70.25V60.47H89.7463V70.25C89.7463 70.49 89.6363 70.68 89.4163 70.82C89.2163 70.94 88.9963 71 88.7563 71ZM105.954 71C105.694 71 105.464 70.94 105.264 70.82C105.064 70.68 104.964 70.49 104.964 70.25V49.79C104.964 49.55 105.064 49.37 105.264 49.25C105.464 49.13 105.694 49.07 105.954 49.07C106.194 49.07 106.414 49.13 106.614 49.25C106.834 49.37 106.944 49.55 106.944 49.79V70.25C106.944 70.49 106.834 70.68 106.614 70.82C106.414 70.94 106.194 71 105.954 71ZM112.487 71C112.227 71 111.997 70.94 111.797 70.82C111.597 70.68 111.497 70.49 111.497 70.25V49.82C111.497 49.54 111.597 49.35 111.797 49.25C111.997 49.13 112.227 49.07 112.487 49.07C112.847 49.07 113.147 49.21 113.387 49.49C113.627 49.77 113.847 50.09 114.047 50.45L122.147 66.41V49.79C122.147 49.55 122.247 49.37 122.447 49.25C122.647 49.13 122.877 49.07 123.137 49.07C123.377 49.07 123.597 49.13 123.797 49.25C124.017 49.37 124.127 49.55 124.127 49.79V70.25C124.127 70.49 124.017 70.68 123.797 70.82C123.597 70.94 123.377 71 123.137 71C122.857 71 122.607 70.89 122.387 70.67C122.167 70.43 121.977 70.16 121.817 69.86L113.477 53.63V70.25C113.477 70.49 113.367 70.68 113.147 70.82C112.947 70.94 112.727 71 112.487 71ZM134.694 71.18C133.534 71.18 132.484 70.97 131.544 70.55C130.604 70.13 129.854 69.45 129.294 68.51C128.754 67.57 128.484 66.32 128.484 64.76V55.46C128.484 53.92 128.754 52.68 129.294 51.74C129.854 50.8 130.594 50.12 131.514 49.7C132.454 49.28 133.504 49.07 134.664 49.07C135.944 49.07 137.054 49.3 137.994 49.76C138.934 50.2 139.664 50.81 140.184 51.59C140.704 52.37 140.964 53.26 140.964 54.26C140.964 54.66 140.874 54.93 140.694 55.07C140.514 55.21 140.274 55.28 139.974 55.28C139.714 55.28 139.484 55.22 139.284 55.1C139.084 54.98 138.984 54.79 138.984 54.53C138.844 53.37 138.424 52.48 137.724 51.86C137.024 51.22 136.014 50.9 134.694 50.9C133.354 50.9 132.304 51.27 131.544 52.01C130.804 52.75 130.434 53.9 130.434 55.46V64.76C130.434 66.32 130.804 67.48 131.544 68.24C132.304 68.98 133.354 69.35 134.694 69.35C136.034 69.35 137.084 68.98 137.844 68.24C138.604 67.48 138.984 66.32 138.984 64.76V61.19H134.964C134.724 61.19 134.534 61.1 134.394 60.92C134.274 60.74 134.214 60.54 134.214 60.32C134.214 60.12 134.274 59.93 134.394 59.75C134.534 59.57 134.724 59.48 134.964 59.48H140.214C140.454 59.48 140.634 59.56 140.754 59.72C140.894 59.88 140.964 60.06 140.964 60.26V64.76C140.964 66.32 140.684 67.57 140.124 68.51C139.564 69.45 138.814 70.13 137.874 70.55C136.934 70.97 135.874 71.18 134.694 71.18Z" fill="black"/>
<path d="M19.108 64.198C17.854 64.198 16.71 63.967 15.676 63.505C14.642 63.043 13.817 62.295 13.201 61.261C12.585 60.227 12.277 58.852 12.277 57.136V46.906C12.277 45.212 12.585 43.848 13.201 42.814C13.839 41.78 14.675 41.032 15.709 40.57C16.765 40.108 17.92 39.877 19.174 39.877C20.626 39.877 21.858 40.13 22.87 40.636C23.882 41.142 24.652 41.813 25.18 42.649C25.73 43.485 26.005 44.398 26.005 45.388C26.005 45.938 25.906 46.301 25.708 46.477C25.532 46.631 25.268 46.708 24.916 46.708C24.52 46.708 24.234 46.631 24.058 46.477C23.904 46.301 23.827 46.103 23.827 45.883C23.805 45.531 23.728 45.135 23.596 44.695C23.486 44.233 23.266 43.793 22.936 43.375C22.628 42.935 22.166 42.583 21.55 42.319C20.956 42.033 20.175 41.89 19.207 41.89C17.667 41.89 16.479 42.297 15.643 43.111C14.829 43.925 14.422 45.19 14.422 46.906V57.136C14.422 58.874 14.84 60.15 15.676 60.964C16.512 61.778 17.722 62.185 19.306 62.185C20.274 62.185 21.044 62.053 21.616 61.789C22.21 61.525 22.65 61.184 22.936 60.766C23.244 60.348 23.453 59.908 23.563 59.446C23.673 58.962 23.761 58.522 23.827 58.126C23.871 57.576 24.223 57.301 24.883 57.301C25.257 57.301 25.532 57.389 25.708 57.565C25.906 57.741 26.005 58.093 26.005 58.621C26.005 59.611 25.73 60.535 25.18 61.393C24.63 62.229 23.838 62.911 22.804 63.439C21.77 63.945 20.538 64.198 19.108 64.198Z" fill="black"/>
<path d="M19.044 71.414C16.422 71.414 14.03 70.931 11.868 69.965C9.706 68.999 7.981 67.435 6.693 65.273C5.405 63.111 4.761 60.236 4.761 56.648V35.258C4.761 31.716 5.405 28.864 6.693 26.702C8.027 24.54 9.775 22.976 11.937 22.01C14.145 21.044 16.56 20.561 19.182 20.561C22.218 20.561 24.794 21.09 26.91 22.148C29.026 23.206 30.636 24.609 31.74 26.357C32.89 28.105 33.465 30.014 33.465 32.084C33.465 33.234 33.258 33.993 32.844 34.361C32.476 34.683 31.924 34.844 31.188 34.844C30.36 34.844 29.762 34.683 29.394 34.361C29.072 33.993 28.911 33.579 28.911 33.119C28.865 32.383 28.704 31.555 28.428 30.635C28.198 29.669 27.738 28.749 27.048 27.875C26.404 26.955 25.438 26.219 24.15 25.667C22.908 25.069 21.275 24.77 19.251 24.77C16.031 24.77 13.547 25.621 11.799 27.323C10.097 29.025 9.246 31.67 9.246 35.258V56.648C9.246 60.282 10.12 62.95 11.868 64.652C13.616 66.354 16.146 67.205 19.458 67.205C21.482 67.205 23.092 66.929 24.288 66.377C25.53 65.825 26.45 65.112 27.048 64.238C27.692 63.364 28.129 62.444 28.359 61.478C28.589 60.466 28.773 59.546 28.911 58.718C29.003 57.568 29.739 56.993 31.119 56.993C31.901 56.993 32.476 57.177 32.844 57.545C33.258 57.913 33.465 58.649 33.465 59.753C33.465 61.823 32.89 63.755 31.74 65.549C30.59 67.297 28.934 68.723 26.772 69.827C24.61 70.885 22.034 71.414 19.044 71.414Z" fill="black"/>
</svg>
